<svg width="157" height="80" viewBox="0 0 157 80" fill="none" xmlns="http://www.w3.org/2000/svg">
<path d="M33.9708 74.5179L33.7126 75.8543H36.2031L36.0512 76.644H33.5456L33.2722 78.0715H36.1879L36.0209 78.8763H32.1484L33.1811 73.7283H36.9472L36.7802 74.5331H33.9708V74.5179Z" fill="#1A7754"/>
<path d="M42.6872 73.7129L41.6545 78.861H40.8649L38.754 75.2619L38.0251 78.861H37.0684L38.101 73.7129H38.8907L41.0167 77.312L41.7305 73.7129H42.6872Z" fill="#1A7754"/>
<path d="M44.8589 74.5179L44.6007 75.8543H47.0912L46.9394 76.644H44.4337L44.1603 78.0715H47.0761L46.909 78.8763H43.0518L44.0844 73.7283H47.8505L47.6835 74.5331H44.8589V74.5179Z" fill="#1A7754"/>
<path d="M51.4497 77.2362L52.3761 78.8763H51.3586L50.5082 77.3729H49.2326L48.944 78.8763H47.9873L49.02 73.7283H51.0245C52.2698 73.7283 52.9835 74.3053 52.9835 75.2772C52.9683 76.2643 52.4064 76.9629 51.4497 77.2362ZM51.9964 75.3532C51.9964 74.7913 51.6016 74.5179 50.903 74.5179H49.8096L49.3996 76.568H50.5386C51.4649 76.568 51.9964 76.158 51.9964 75.3532Z" fill="#1A7754"/>
<path d="M57.4029 76.2338H58.3141L57.8889 78.3143C57.3725 78.7243 56.6892 78.9521 55.9754 78.9521C54.4264 78.9521 53.4697 78.0562 53.4697 76.7502C53.4697 75.0038 54.7302 73.6522 56.674 73.6522C57.6155 73.6522 58.3141 73.9559 58.7393 74.5026L58.0407 75.0797C57.7066 74.6697 57.251 74.5026 56.6132 74.5026C55.2769 74.5026 54.4264 75.4594 54.4264 76.7046C54.4264 77.555 54.9883 78.1321 56.0817 78.1321C56.4462 78.1321 56.7803 78.0562 57.084 77.8891L57.4029 76.2338Z" fill="#1A7754"/>
<path d="M60.06 73.7129H61.0167L59.9841 78.861H59.0273L60.06 73.7129Z" fill="#1A7754"/>
<path d="M65.0107 77.6766H62.4139L61.6698 78.8763H60.6523L64.0085 73.7283H64.9652L66.2408 78.8763H65.2841L65.0107 77.6766ZM64.8285 76.9325L64.3122 74.6698L62.8847 76.9325H64.8285Z" fill="#1A7754"/>
<path d="M73.9255 78.8762L74.3051 79.4685C73.9862 79.8329 73.5003 80 72.984 80C72.1791 80 71.5413 79.6355 71.0857 78.9218C69.7949 78.7699 69.0508 77.9195 69.0508 76.7502C69.0508 75.0038 70.3112 73.6522 72.2095 73.6522C73.7584 73.6522 74.6696 74.5482 74.6696 75.8542C74.6696 77.3728 73.7129 78.5877 72.2398 78.8914C72.4525 79.1647 72.6954 79.2862 73.0143 79.2862C73.3484 79.271 73.6825 79.1344 73.9255 78.8762ZM71.5868 78.1017C72.8777 78.1017 73.6977 77.0994 73.6977 75.8998C73.6977 75.0493 73.1358 74.4723 72.1032 74.4723C70.8124 74.4723 69.9923 75.4745 69.9923 76.6742C70.0075 77.5247 70.5542 78.1017 71.5868 78.1017Z" fill="#1A7754"/>
<path d="M75.4736 77.1753C75.4736 76.9931 75.4888 76.8108 75.5344 76.6286L76.1114 73.7281H77.0682L76.4911 76.6134C76.4607 76.7805 76.4455 76.9323 76.4455 77.069C76.4455 77.7676 76.8556 78.1017 77.5845 78.1017C78.4045 78.1017 78.8905 77.6461 79.1031 76.5982L79.6802 73.7129H80.6217L80.0294 76.659C79.7257 78.1776 78.8601 78.9369 77.4782 78.9369C76.2177 78.9369 75.4736 78.2687 75.4736 77.1753Z" fill="#1A7754"/>
<path d="M82.7485 74.5179L82.4904 75.8543H84.9809L84.829 76.644H82.3233L82.05 78.0715H84.9657L84.7986 78.8763H80.9414L81.974 73.7283H85.7402L85.5731 74.5331H82.7485V74.5179Z" fill="#1A7754"/>
<path d="M91.4805 77.6766H88.8836L88.1395 78.8763H87.1221L90.4782 73.7283H91.4349L92.7105 78.8763H91.7538L91.4805 77.6766ZM91.2982 76.9325L90.7819 74.6698L89.3544 76.9325H91.2982Z" fill="#1A7754"/>
<path d="M98.2375 77.2514C98.2375 78.3448 97.2959 78.8763 95.9596 78.8763H93.3779L94.4106 73.7283H96.7948C97.8578 73.7283 98.4652 74.1383 98.4652 74.8824C98.4652 75.5506 98.0704 76.0062 97.5389 76.2188C97.9641 76.3706 98.2375 76.7199 98.2375 77.2514ZM97.2807 77.2514C97.2807 76.7958 96.9467 76.6288 96.3544 76.6288H94.7751L94.4865 78.117H96.0355C96.81 78.117 97.2807 77.8285 97.2807 77.2514ZM95.2003 74.4724L94.9117 75.8999H96.2785C96.9922 75.8999 97.463 75.6113 97.463 75.0494C97.463 74.6546 97.1441 74.4876 96.567 74.4876H95.2003V74.4724Z" fill="#1A7754"/>
<path d="M102.597 77.6766H99.9999L99.2558 78.8763H98.2383L101.594 73.7283H102.551L103.827 78.8763H102.87L102.597 77.6766ZM102.414 76.9325L101.898 74.6698L100.471 76.9325H102.414Z" fill="#1A7754"/>
<path d="M104.176 78.3447L104.586 77.6006C105.011 77.9499 105.634 78.1625 106.256 78.1625C107 78.1625 107.486 77.8891 107.486 77.4335C107.486 76.4768 104.89 76.978 104.89 75.3227C104.89 74.3052 105.801 73.6522 107.137 73.6522C107.805 73.6522 108.428 73.8041 108.853 74.0926L108.473 74.8519C108.094 74.5937 107.593 74.4571 107.076 74.4571C106.302 74.4571 105.831 74.776 105.831 75.2164C105.831 76.1731 108.428 75.7023 108.428 77.2817C108.428 78.2991 107.502 78.9521 106.15 78.9521C105.36 78.937 104.571 78.6788 104.176 78.3447Z" fill="#1A7754"/>
<path d="M110.949 74.5331H109.248L109.415 73.7283H113.789L113.622 74.5331H111.921L111.055 78.8763H110.098L110.949 74.5331Z" fill="#1A7754"/>
<path d="M115.292 74.5179L115.033 75.8543H117.524L117.372 76.644H114.866L114.593 78.0715H117.509L117.342 78.8763H113.484L114.517 73.7283H118.283L118.116 74.5331H115.292V74.5179Z" fill="#1A7754"/>
<path d="M118.48 76.735C118.48 74.9886 119.741 73.6371 121.654 73.6371C122.535 73.6371 123.249 73.9408 123.613 74.5027L122.915 75.0798C122.641 74.6849 122.201 74.4723 121.578 74.4723C120.257 74.4723 119.437 75.4594 119.437 76.6743C119.437 77.5247 119.999 78.1018 121.047 78.1018C121.624 78.1018 122.125 77.9044 122.505 77.5095L123.067 78.117C122.566 78.694 121.821 78.9522 120.971 78.9522C119.422 78.937 118.48 78.041 118.48 76.735Z" fill="#1A7754"/>
<path d="M125.542 74.5179L125.284 75.8543H127.775L127.623 76.644H125.117L124.844 78.0715H127.76L127.593 78.8763H123.735L124.768 73.7283H128.534L128.367 74.5331H125.542V74.5179Z" fill="#1A7754"/>
<path d="M130.797 76.735C130.797 74.9886 132.057 73.6371 133.956 73.6371C135.505 73.6371 136.416 74.5331 136.416 75.8391C136.416 77.5855 135.155 78.937 133.257 78.937C131.708 78.937 130.797 78.041 130.797 76.735ZM135.459 75.8998C135.459 75.0494 134.897 74.4723 133.864 74.4723C132.574 74.4723 131.754 75.4746 131.754 76.6743C131.754 77.5247 132.3 78.1018 133.333 78.1018C134.639 78.1018 135.459 77.0995 135.459 75.8998Z" fill="#1A7754"/>
<path d="M143.78 77.2514C143.78 78.3448 142.839 78.8763 141.503 78.8763H138.921L139.954 73.7283H142.338C143.401 73.7283 144.008 74.1383 144.008 74.8824C144.008 75.5506 143.613 76.0062 143.082 76.2188C143.522 76.3706 143.78 76.7199 143.78 77.2514ZM142.824 77.2514C142.824 76.7958 142.49 76.6288 141.897 76.6288H140.318L140.029 78.117H141.578C142.368 78.117 142.824 77.8285 142.824 77.2514ZM140.758 74.4724L140.47 75.8999H141.837C142.55 75.8999 143.021 75.6113 143.021 75.0494C143.021 74.6546 142.702 74.4876 142.125 74.4876H140.758V74.4724Z" fill="#1A7754"/>
<path d="M146.332 74.5179L146.073 75.8543H148.564L148.412 76.644H145.906L145.633 78.0715H148.549L148.382 78.8763H144.524L145.557 73.7283H149.323L149.156 74.5331H146.332V74.5179Z" fill="#1A7754"/>
<path d="M156.127 73.7129L155.095 78.861H154.183L154.852 75.4897L152.65 78.2839H152.224L151.04 75.4289L150.356 78.8761H149.445L150.478 73.7281H151.252L152.619 77.1601L155.292 73.7281H156.127V73.7129Z" fill="#1A7754"/>
<path d="M103.69 46.363V48.2005H106.135V48.7775H103.69V51.0251H103.098V45.7859H106.423V46.363H103.69Z" fill="#5C6062"/>
<path d="M110.934 51.025H110.357V50.129C110.099 50.7365 109.568 51.0402 108.854 51.0402C107.928 51.0402 107.381 50.4631 107.381 49.5064V47.0767H107.958V49.3546C107.958 50.0531 108.368 50.4631 109.051 50.4631C109.871 50.448 110.342 49.8557 110.342 49.0205V47.0767H110.919V51.025H110.934Z" fill="#5C6062"/>
<path d="M116.052 49.2787H112.832C112.939 50.0532 113.501 50.5391 114.26 50.5391C114.746 50.5391 115.171 50.3721 115.475 50.038L115.794 50.3873C115.414 50.8125 114.867 51.0403 114.199 51.0403C113.045 51.0403 112.24 50.2202 112.24 49.0509C112.24 47.8816 113.045 47.0615 114.199 47.0615C115.49 47.0615 116.113 47.9423 116.052 49.2787ZM115.536 48.7927C115.505 48.0334 114.989 47.5627 114.214 47.5627C113.47 47.5627 112.924 48.0486 112.832 48.7927H115.536Z" fill="#5C6062"/>
<path d="M117.403 51.025V45.4669H117.98V51.025H117.403Z" fill="#5C6062"/>
<path d="M120.41 45.953C120.41 46.1808 120.243 46.363 120.03 46.363C119.817 46.363 119.65 46.196 119.65 45.953C119.65 45.7252 119.817 45.543 120.03 45.543C120.243 45.543 120.41 45.71 120.41 45.953ZM119.742 51.0251V47.0768H120.319V51.0251H119.742Z" fill="#5C6062"/>
<path d="M125.649 48.5953V51.0251H125.072V48.7472C125.072 48.0486 124.647 47.6386 123.964 47.6386C123.189 47.6386 122.703 48.1549 122.643 48.899V51.0099H122.065V47.0615H122.643V47.9271C122.916 47.3349 123.447 47.0463 124.176 47.0311C125.087 47.0615 125.649 47.6386 125.649 48.5953Z" fill="#5C6062"/>
<path d="M130.676 50.6151C130.676 51.7692 129.886 52.4981 128.686 52.4981C128.064 52.4981 127.547 52.2855 127.076 51.9362L127.35 51.4807C127.745 51.7996 128.155 51.9818 128.671 51.9818C129.537 51.9818 130.098 51.4655 130.098 50.6302V50.038C129.825 50.5543 129.309 50.858 128.641 50.858C127.578 50.858 126.849 50.0684 126.849 48.9446C126.849 47.8512 127.578 47.0615 128.625 47.0615C129.294 47.0615 129.81 47.3652 130.098 47.8816V47.0767H130.676V50.6151ZM130.098 48.9598C130.098 48.1397 129.537 47.5627 128.747 47.5627C127.957 47.5627 127.395 48.1397 127.395 48.9598C127.395 49.7646 127.957 50.3569 128.747 50.3569C129.537 50.3569 130.098 49.7646 130.098 48.9598Z" fill="#5C6062"/>
<path d="M106.302 54.7152L106.044 55.2771C105.573 54.9582 105.011 54.8367 104.601 54.8367C103.933 54.8367 103.493 55.0949 103.493 55.5353C103.493 56.8868 106.439 56.1731 106.439 58.0865C106.439 58.9673 105.664 59.5292 104.541 59.5292C103.781 59.5292 103.022 59.1951 102.536 58.7243L102.809 58.1928C103.295 58.6636 103.964 58.9369 104.556 58.9369C105.315 58.9369 105.786 58.6332 105.786 58.1321C105.786 56.7501 102.84 57.4943 102.84 55.6112C102.84 54.7911 103.569 54.2596 104.647 54.2596C105.254 54.2293 105.877 54.4115 106.302 54.7152Z" fill="#5C6062"/>
<path d="M111.299 59.4836H110.722V58.5877C110.463 59.1951 109.932 59.4988 109.218 59.4988C108.292 59.4988 107.745 58.9218 107.745 57.965V55.5353H108.322V57.8132C108.322 58.5117 108.732 58.9218 109.416 58.9218C110.236 58.9066 110.706 58.3143 110.706 57.4791V55.5353H111.283V59.4836H111.299Z" fill="#5C6062"/>
<path d="M115.323 55.8847L115.095 56.3554C114.791 56.158 114.396 56.0365 114.032 56.0365C113.591 56.0365 113.257 56.1884 113.257 56.5681C113.257 57.4488 115.459 56.9933 115.459 58.4056C115.459 59.18 114.776 59.5293 114.017 59.5293C113.455 59.5293 112.878 59.3319 112.498 58.9826L112.726 58.5422C113.06 58.8611 113.576 59.0434 114.032 59.0434C114.487 59.0434 114.867 58.8763 114.882 58.4815C114.897 57.5248 112.695 58.0107 112.711 56.6136C112.711 55.8543 113.364 55.5506 114.077 55.5506C114.533 55.5202 114.989 55.6569 115.323 55.8847Z" fill="#5C6062"/>
<path d="M118.739 59.2103C118.466 59.3926 118.162 59.4989 117.843 59.514C117.266 59.514 116.841 59.1648 116.841 58.3903V56.1427H116.279V55.672H116.841V54.6241H117.418V55.672H118.663V56.1579H117.418V58.2992C117.418 58.7851 117.6 58.9522 117.935 58.9522C118.132 58.9522 118.345 58.8914 118.557 58.7547L118.739 59.2103Z" fill="#5C6062"/>
<path d="M122.369 58.8762C122.05 59.3014 121.549 59.514 120.926 59.514C120.106 59.514 119.59 58.9977 119.59 58.3143C119.59 57.631 120.137 57.1906 121.063 57.1906H122.354V56.9628C122.354 56.3857 121.989 56.0364 121.291 56.0364C120.85 56.0364 120.455 56.2035 120.045 56.492L119.802 56.0668C120.319 55.7327 120.744 55.5353 121.412 55.5353C122.384 55.5353 122.931 56.0516 122.931 56.902V59.514H122.369V58.8762ZM122.369 58.1169V57.6461H121.139C120.486 57.6461 120.137 57.8436 120.137 58.284C120.137 58.7243 120.486 58.9977 121.048 58.9977C121.701 59.0129 122.217 58.6636 122.369 58.1169Z" fill="#5C6062"/>
<path d="M125.209 54.4116C125.209 54.6394 125.041 54.8216 124.829 54.8216C124.616 54.8216 124.449 54.6546 124.449 54.4116C124.449 54.1838 124.616 54.0016 124.829 54.0016C125.041 54.0016 125.209 54.1838 125.209 54.4116ZM124.54 59.4837V55.5354H125.117V59.4837H124.54Z" fill="#5C6062"/>
<path d="M130.448 57.0539V59.4837H129.871V57.2058C129.871 56.5072 129.446 56.0972 128.763 56.0972C127.988 56.0972 127.502 56.6135 127.441 57.3576V59.4685H126.864V55.5201H127.441V56.3857C127.715 55.7935 128.246 55.5049 128.975 55.4897C129.901 55.5201 130.448 56.0972 130.448 57.0539Z" fill="#5C6062"/>
<path d="M134.503 58.8762C134.184 59.3014 133.683 59.514 133.06 59.514C132.24 59.514 131.724 58.9977 131.724 58.3143C131.724 57.631 132.27 57.1906 133.197 57.1906H134.487V56.9628C134.487 56.3857 134.123 56.0364 133.424 56.0364C132.984 56.0364 132.589 56.2035 132.179 56.492L131.936 56.0668C132.453 55.7327 132.878 55.5353 133.546 55.5353C134.518 55.5353 135.065 56.0516 135.065 56.902V59.514H134.503V58.8762ZM134.487 58.1169V57.6461H133.257C132.604 57.6461 132.255 57.8436 132.255 58.284C132.255 58.7243 132.604 58.9977 133.166 58.9977C133.834 59.0129 134.336 58.6636 134.487 58.1169Z" fill="#5C6062"/>
<path d="M140.699 57.5247C140.699 58.694 139.94 59.5141 138.816 59.5141C138.117 59.5141 137.571 59.1952 137.282 58.6485V59.4989H136.705V53.9408H137.282V56.4009C137.571 55.8542 138.117 55.5201 138.801 55.5201C139.925 55.5201 140.699 56.3402 140.699 57.5247ZM140.107 57.5095C140.107 56.6591 139.53 56.0365 138.694 56.0365C137.859 56.0365 137.282 56.6439 137.282 57.5095C137.282 58.3751 137.859 58.9826 138.694 58.9826C139.53 58.9826 140.107 58.3599 140.107 57.5095Z" fill="#5C6062"/>
<path d="M142.688 54.4116C142.688 54.6394 142.521 54.8216 142.308 54.8216C142.096 54.8216 141.929 54.6546 141.929 54.4116C141.929 54.1838 142.096 54.0016 142.308 54.0016C142.521 54.0016 142.688 54.1838 142.688 54.4116ZM142.02 59.4837V55.5354H142.597V59.4837H142.02Z" fill="#5C6062"/>
<path d="M144.358 59.4836V53.9255H144.935V59.4836H144.358Z" fill="#5C6062"/>
<path d="M147.366 54.4116C147.366 54.6394 147.199 54.8216 146.986 54.8216C146.773 54.8216 146.606 54.6546 146.606 54.4116C146.606 54.1838 146.773 54.0016 146.986 54.0016C147.199 54.0016 147.366 54.1838 147.366 54.4116ZM146.698 59.4837V55.5354H147.275V59.4837H146.698Z" fill="#5C6062"/>
<path d="M151.04 59.2103C150.767 59.3926 150.463 59.4989 150.144 59.514C149.567 59.514 149.142 59.1648 149.142 58.3903V56.1427H148.58V55.672H149.142V54.6241H149.719V55.672H150.964V56.1579H149.719V58.2992C149.719 58.7851 149.901 58.9522 150.235 58.9522C150.433 58.9522 150.645 58.8914 150.858 58.7547L151.04 59.2103Z" fill="#5C6062"/>
<path d="M153.47 60.0456C153.227 60.653 152.817 60.9719 152.285 60.9719C151.951 60.9719 151.693 60.8808 151.45 60.6834L151.693 60.1975C151.875 60.3189 152.058 60.3797 152.24 60.3797C152.544 60.3797 152.802 60.1975 152.954 59.833L153.121 59.4685L151.496 55.5505H152.103L153.409 58.8003L154.654 55.5505H155.247L153.47 60.0456Z" fill="#5C6062"/>
<path d="M41.382 26.7729V37.2968H59.8178V44.6924H41.382V59.1951H32.1641V19.3773H62.2628V26.7729H41.382Z" fill="#5C6062"/>
<path d="M63.1133 55.277L66.2416 48.337C69.5977 50.782 74.6091 52.4828 79.3775 52.4828C84.8445 52.4828 87.0616 50.6605 87.0616 48.2155C87.0616 40.7592 63.9029 45.8769 63.9029 31.0857C63.9029 24.3127 69.3699 18.6787 80.6835 18.6787C85.6949 18.6787 90.8126 19.8784 94.5028 22.2019L91.663 29.2026C87.9576 27.0918 84.1459 26.0743 80.6228 26.0743C75.1558 26.0743 73.0601 28.1244 73.0601 30.6301C73.0601 37.965 96.2188 32.908 96.2188 47.5322C96.2188 54.1836 90.7063 59.8784 79.3168 59.8784C73.0146 59.8784 66.6516 57.9953 63.1133 55.277Z" fill="#5C6062"/>
<path d="M0 39.8937C0.121488 39.8937 0.24298 39.9089 0.364468 39.9089C11.3895 39.9089 20.3189 30.9795 20.3189 19.9544C20.3189 8.92938 11.3895 0 0.364468 0C0.24298 0 0.121488 9.26655e-07 0 0.015187V39.8937Z" fill="url(#paint0_linear_1570_7700)"/>
<path d="M20.3037 19.3318C20.1822 19.3318 20.0607 19.3167 19.9392 19.3167C8.92938 19.3167 0 28.246 0 39.2559C0 50.2658 8.92938 59.1951 19.9392 59.1951C20.0607 59.1951 20.1822 59.1951 20.3037 59.18V19.3318Z" fill="url(#paint1_linear_1570_7700)"/>
<defs>
<linearGradient id="paint0_linear_1570_7700" x1="10.1518" y1="33.692" x2="10.1518" y2="7.24382" gradientUnits="userSpaceOnUse">
<stop stop-color="#F6D11D"/>
<stop offset="0.4499" stop-color="#F6D31A"/>
<stop offset="0.7621" stop-color="#F8D911"/>
<stop offset="1" stop-color="#FAE104"/>
</linearGradient>
<linearGradient id="paint1_linear_1570_7700" x1="10.1466" y1="19.9417" x2="10.1466" y2="58.5484" gradientUnits="userSpaceOnUse">
<stop offset="0.1446" stop-color="#78AA41"/>
<stop offset="0.1735" stop-color="#73A742"/>
<stop offset="0.4846" stop-color="#438D4C"/>
<stop offset="0.7222" stop-color="#257D52"/>
<stop offset="0.8565" stop-color="#1A7754"/>
</linearGradient>
</defs>
</svg>
